<?xml version="1.0" encoding="UTF-8"?>
<svg id="Layer_1" data-name="Layer 1" xmlns="http://www.w3.org/2000/svg" viewBox="0 0 514.89 612.35">
  <defs>
    <style>
      .cls-1 {
        stroke-width: 0px;
      }
    </style>
  </defs>
  <path class="cls-1" d="m142.2,365.26v-7.8l-15.32,11.13-5.14-7.07-.06.06c-10.07,10.18-18.94,21.54-26.37,33.77l-.09.14.16-.04c13.92-3.29,27.47-8.21,40.27-14.65l.08-.04-5.14-7.07,11.61-8.43Z"/>
  <polygon class="cls-1" points="397.34 179.88 408.22 171.98 404.51 166.87 393.63 174.77 396.02 159.69 367.3 185.27 365.76 195.03 331.89 219.63 342.63 219.63 369.47 200.13 379.22 201.68 412.43 182.27 397.34 179.88"/>
  <path class="cls-1" d="m256.82,384.45h0c-3.04,0-6.06-.45-8.95-1.3l-73.38,53.32-5.14-7.07-.06.06c-10.07,10.18-18.95,21.54-26.37,33.77l-.09.14.17-.04c13.92-3.29,27.47-8.21,40.27-14.65l.07-.04-5.14-7.07,78.62-57.12Z"/>
  <polygon class="cls-1" points="444.95 247.77 455.83 239.87 452.12 234.76 441.24 242.66 443.63 227.58 414.91 253.16 413.36 262.91 371.43 293.38 371.43 301.18 417.07 268.02 426.83 269.56 460.03 250.16 444.95 247.77"/>
  <path class="cls-1" d="m206.38,369.86h-10.74l-44.95,32.66-5.14-7.07-.06.06c-10.07,10.18-18.94,21.54-26.37,33.77l-.09.14.16-.04c13.92-3.29,27.47-8.21,40.27-14.65l.08-.04-5.14-7.07,51.98-37.77Z"/>
  <polygon class="cls-1" points="421.15 213.83 432.02 205.92 428.31 200.81 417.44 208.72 419.82 193.63 391.1 219.21 389.56 228.97 371.43 242.14 371.43 249.95 393.27 234.08 403.02 235.62 436.23 216.22 421.15 213.83"/>
  <path class="cls-1" d="m346.62,70.61s-1.28-.19-3.29-.23c-.02.01-.03.02-.04.04-4.62-.09-13.1.61-18.78,6.16-2.11,2.07-2.79,4.88-2.79,7.59h0c0,.25,0,.49.02.73,0,.15.02.31.03.47,0,.07,0,.14.01.21.02.22.04.43.06.65h0c.06.52.13,1.02.21,1.51-.83-.88-1.83-1.63-3.07-2.14-9.42-3.92-19.8,1.11-19.8,1.11,0,0,2.43,11.78,13.15,14.84,2.61.74,5.17.38,7.35-.36l-2.23,4.01c-2.85,5.14-8.66,7.87-14.44,6.81-7.42-1.37-12.35-8.52-10.98-15.94l-3.11-.57-3.11-.57c-.66,3.6-2.68,6.72-5.69,8.79-3.01,2.07-6.65,2.85-10.24,2.19-6.5-1.2-11.22-6.86-11.2-13.47v-8.52c1.83,2.03,4.45,3.94,7.81,3.94,10.23,0,17.89-8.66,17.89-8.66,0,0-7.66-8.67-17.89-8.67-1.24,0-2.38.26-3.42.7,2.02-1.93,3.65-4.43,3.65-7.47,0-11.4-11.19-19.94-11.19-19.94,0,0-11.19,8.54-11.19,19.94,0,3.04,1.63,5.54,3.64,7.47-1.04-.43-2.18-.7-3.42-.7-10.23,0-17.89,8.67-17.89,8.67,0,0,7.66,8.66,17.89,8.66,3.36,0,5.98-1.91,7.82-3.94v8.52c0,6.61-4.7,12.27-11.21,13.47-3.6.66-7.23-.12-10.24-2.19-3.01-2.07-5.03-5.2-5.69-8.79l-3.1.57-3.11.57c1.36,7.42-3.56,14.57-10.98,15.94-5.79,1.06-11.59-1.67-14.44-6.81l-2.22-4.01c2.18.74,4.74,1.11,7.35.36,10.72-3.06,13.15-14.84,13.15-14.84,0,0-10.38-5.04-19.8-1.11-1.23.51-2.24,1.26-3.07,2.14.09-.48.16-.98.21-1.49h0c.02-.23.04-.45.06-.66,0-.07,0-.14.01-.21,0-.15.02-.31.03-.47,0-.24.01-.49.01-.73h0c0-2.72-.68-5.53-2.79-7.6-5.68-5.55-14.16-6.25-18.78-6.16-.01-.01-.02-.02-.04-.04-2.01.04-3.29.23-3.29.23,0,0-.27,2.22-.08,5.41,5.6,5.99,10.65,12.39,15.11,19.12,6.17,9.31,11.22,19.27,15.07,29.69l12.15,7.01-6.66,11.54c1.07,4.78,1.91,9.63,2.5,14.55h.01c.08.02.17.04.26.05,17.2,3.51,34.8,5.28,52.66,5.29h.17c17.86-.01,35.45-1.79,52.65-5.29h0c.08-.02.17-.03.26-.05h0c.59-4.92,1.43-9.77,2.5-14.55l-6.66-11.54,12.15-7.01c3.86-10.43,8.91-20.38,15.07-29.69,4.46-6.73,9.51-13.13,15.11-19.12.19-3.18-.08-5.41-.08-5.41m-60.8,48.9c4.37,0,7.91,3.54,7.91,7.91s-3.54,7.91-7.91,7.91-7.91-3.54-7.91-7.91,3.54-7.91,7.91-7.91m-30.34-8.21l11.19,11.19-11.19,11.19-11.19-11.19,11.19-11.19Zm-30.39,8.21c4.37,0,7.91,3.54,7.91,7.91s-3.54,7.91-7.91,7.91-7.91-3.54-7.91-7.91,3.54-7.91,7.91-7.91m77.72,33.12c-15.48,2.88-31.28,4.33-47.3,4.33s-31.8-1.45-47.27-4.33c-.13-.87-.27-1.75-.42-2.62,15.61-2.93,31.54-4.41,47.69-4.41s32.1,1.48,47.71,4.41c-.15.87-.28,1.74-.41,2.62"/>
  <polygon class="cls-1" points="256.81 232.51 167.96 167.96 158.21 169.5 125 150.09 140.09 147.71 129.21 139.8 132.92 134.69 143.8 142.6 141.41 127.51 170.13 153.09 171.67 162.85 256.81 224.71 341.95 162.85 343.5 153.09 372.22 127.51 369.83 142.6 380.71 134.69 384.42 139.8 373.54 147.71 388.62 150.09 355.42 169.5 345.66 167.96 256.81 232.51"/>
  <path class="cls-1" d="m355.53,237.54l.11,116.54h-82.75l-.58,2.41c-1.73,7.17-8.1,12.18-15.49,12.18s-13.75-5.01-15.49-12.18l-.58-2.41h-82.76l.12-116.54h-6.43v122.85h84.25c3.17,8.7,11.44,14.59,20.89,14.59s17.73-5.89,20.9-14.59h84.25v-122.85h-6.43Z"/>
  <path class="cls-1" d="m418.32,395.34c-7.43-12.23-16.3-23.59-26.37-33.77l-.06-.06-5.14,7.07-15.32-11.13v7.8l11.61,8.43-5.14,7.07.08.04c12.8,6.43,26.35,11.36,40.27,14.65l.16.04-.09-.14Z"/>
  <polygon class="cls-1" points="171 217.35 181.74 217.35 147.87 192.75 146.32 182.99 117.6 157.41 119.99 172.49 109.11 164.59 105.4 169.7 116.28 177.6 101.2 179.99 134.4 199.4 144.16 197.85 171 217.35"/>
  <polygon class="cls-1" points="142.2 242.14 124.07 228.97 122.52 219.21 93.8 193.63 96.19 208.72 85.31 200.81 81.6 205.92 92.48 213.83 77.39 216.21 110.6 235.62 120.35 234.08 142.2 249.95 142.2 242.14"/>
  <path class="cls-1" d="m394.52,429.29c-7.43-12.23-16.3-23.59-26.37-33.77l-.06-.06-5.14,7.07-44.95-32.66h-10.74l51.98,37.77-5.14,7.07.08.04c12.8,6.43,26.35,11.36,40.27,14.65l.16.04-.09-.14Z"/>
  <polygon class="cls-1" points="142.2 293.38 100.26 262.91 98.72 253.16 70 227.58 72.39 242.66 61.51 234.76 57.8 239.87 68.68 247.77 53.59 250.16 86.79 269.57 96.55 268.02 142.2 301.18 142.2 293.38"/>
  <path class="cls-1" d="m344.34,429.46l-.06-.06-5.14,7.07-73.38-53.31c-2.89.85-5.91,1.3-8.95,1.3h0l78.62,57.12-5.14,7.07.08.04c12.8,6.43,26.35,11.36,40.27,14.65l.16.04-.09-.14c-7.43-12.23-16.3-23.59-26.37-33.77"/>
  <path class="cls-1" d="m142.2,314.02v-7.8l-39.13,28.43-5.14-7.07-.06.06c-10.07,10.18-18.94,21.54-26.37,33.77l-.09.14.16-.04c13.92-3.29,27.47-8.21,40.27-14.65l.08-.04-5.14-7.07,35.41-25.73Z"/>
  <path class="cls-1" d="m442.12,361.4c-7.43-12.23-16.3-23.59-26.37-33.77l-.06-.06-5.14,7.07-39.12-28.43v7.8l35.41,25.73-5.14,7.07.08.04c12.8,6.43,26.35,11.36,40.27,14.65l.16.04-.09-.14Z"/>
  <path class="cls-1" d="m300.09,513.59c.99-3.05,3.94-12.13,4.93-15.18,1.77-5.45-1.21-11.31-6.66-13.08l-14.34-2.6,10.06-10.53c3.37-4.64,2.34-11.13-2.3-14.5-2.6-1.88-10.32-7.5-12.91-9.38-1.84-1.34-3.98-1.98-6.09-1.98-3.21,0-6.37,1.49-8.4,4.28l-6.91,12.83-6.91-12.83c-2.03-2.79-5.2-4.28-8.4-4.28-2.11,0-4.25.64-6.09,1.98-2.6,1.88-10.32,7.5-12.91,9.38-4.64,3.37-5.66,9.86-2.3,14.5l10.07,10.53-14.34,2.6c-5.45,1.77-8.44,7.63-6.67,13.08,1,3.05,3.94,12.13,4.94,15.18,1.42,4.38,5.49,7.17,9.87,7.17,1.06,0,2.15-.17,3.21-.51l13.13-6.32-1.95,14.44c0,5.73,4.65,10.38,10.38,10.38h15.96c5.73,0,10.38-4.64,10.38-10.38l-1.95-14.44,13.13,6.32c1.07.34,2.15.51,3.21.51,4.37,0,8.44-2.79,9.87-7.17m-32.48-9.8c-.38,0-.75-.01-1.12-.04-1.79,7.11-9.01,14.23-9.01,14.23,0,0-7.22-7.11-9.01-14.23-.37.02-.75.04-1.13.04-7.08,0-15.19-4.21-15.19-4.21,0,0,4.53-9.06,10.74-12.96-2.73-6.81-1.07-16.81-1.07-16.81,0,0,10.02,1.51,15.65,6.21,5.63-4.71,15.65-6.21,15.65-6.21,0,0,1.67,10-1.07,16.81,6.22,3.9,10.74,12.96,10.74,12.96,0,0-8.1,4.21-15.19,4.21"/>
  <path class="cls-1" d="m259.3,484.86c3.58,1.17,5.54,5.01,4.38,8.59-1.16,3.58-5.01,5.54-8.59,4.38-3.58-1.17-5.54-5.01-4.38-8.59,1.17-3.58,5.01-5.54,8.59-4.38"/>
  <path class="cls-1" d="m213.8,478.65l.45-.15.46-.08,1.52-.28-1.07-1.11-.32-.34-.28-.38c-1.62-2.24-2.67-4.77-3.1-7.42-5.01,1.24-9.16,3.37-9.4,3.5l-1.36.71.69,1.37c.15.3,2.24,4.43,5.56,8.37,1.87-1.86,4.19-3.32,6.86-4.19"/>
  <path class="cls-1" d="m255.62,446.48l.28.38.23.41.73,1.36.73-1.36.22-.41.28-.38c1.62-2.22,3.72-3.99,6.1-5.23-2.72-4.37-6.01-7.64-6.24-7.87l-1.09-1.08-1.09,1.08c-.23.23-3.52,3.5-6.24,7.87,2.39,1.23,4.49,3.01,6.11,5.23"/>
  <path class="cls-1" d="m311.64,472.4c-.25-.13-4.4-2.26-9.41-3.5-.42,2.6-1.44,5.15-3.09,7.42l-.28.38-.32.34-1.07,1.11,1.52.28.46.08.45.15c2.67.87,4.99,2.33,6.86,4.19,3.31-3.94,5.41-8.07,5.56-8.37l.69-1.37-1.36-.71Z"/>
  <path class="cls-1" d="m289.94,527.77c-1.83,0-3.63-.29-5.38-.85l-.45-.15-.43-.21-1.39-.67.21,1.53.06.47v.47c0,2.81-.68,5.46-1.87,7.82,4.77,1.94,9.35,2.65,9.68,2.7l1.52.23.25-1.51c.06-.32.79-4.9.43-10.02-.87.13-1.74.2-2.64.2"/>
  <path class="cls-1" d="m232.1,528.37v-.47l.06-.47.21-1.53-1.39.67-.43.21-.45.15c-1.75.57-3.56.85-5.38.85-.89,0-1.77-.08-2.64-.21-.37,5.13.37,9.7.42,10.03l.25,1.51,1.52-.23c.32-.05,4.91-.76,9.67-2.7-1.19-2.35-1.86-5.01-1.86-7.82"/>
  <path class="cls-1" d="m241.27,280.63c-1.36,0-2.18,1.71-2.32,4.83h2.55c1.37,0,1.77-.41,1.77-1.84,0-1.85-.77-2.99-2-2.99"/>
  <path class="cls-1" d="m179.12,275.63h-.89c-.06,2.65-.06,5.28-.06,8.05v1.09c0,2.83,0,5.5.06,8.19h.86c3.66,0,5.85-3.25,5.85-8.68s-2.12-8.65-5.82-8.65"/>
  <path class="cls-1" d="m232.97,225.95h-68.56v115.69h68.56c8.29,0,15.72,3.76,20.68,9.67v-104.67c0-11.4-9.28-20.68-20.68-20.68m-36.02,44.84c1.73,0,3.03,1.23,3.03,2.86s-1.3,2.83-3.03,2.83-3.03-1.22-3.03-2.83,1.3-2.86,3.03-2.86m-17.91,24.54h-9.41v-2.22l2.47-.26c.06-2.6.06-5.25.06-8.05v-1.12c0-2.62,0-5.32-.06-7.95l-2.47-.26v-2.22h10c7.06,0,11.45,4.21,11.45,10.99s-4.61,11.09-12.04,11.09m22.48,0h-9.18v-1.97l1.78-.4c.03-1.55.03-3.48.03-4.78v-1.58c0-1.74-.03-2.73-.09-3.94l-2.05-.3v-1.66l7.17-2.29.76.49-.1,4.9v4.37c0,1.31,0,3.26.03,4.84l1.65.33v1.97Zm6.76.49c-2.15,0-4.06-.51-5.84-1.55l-.12-.07.11-4.38h3.05l.57,3.32c.77.27,1.47.4,2.26.4,1.79,0,2.69-.57,2.69-1.71,0-.84-.43-1.49-2.59-2.11l-1.78-.53c-2.71-.8-4.15-2.57-4.15-5.12,0-3.37,2.86-5.63,7.11-5.63,1.81,0,3.35.4,5.3,1.38l.14.07-.26,3.96h-3.03l-.67-2.88c-.43-.14-.92-.21-1.61-.21s-2.23.16-2.23,1.61c0,.62.2,1.25,2.6,1.98l1.61.46c3.1.91,4.54,2.6,4.54,5.32,0,3.56-2.88,5.69-7.7,5.69m23.96-12.27c-.39,1.28-1.17,1.88-2.46,1.88-.95,0-2.57-.43-2.73-3.35l-.21-1.45c-.13,0-.26,0-.42,0-1.71,0-3.71,1.56-3.71,5.95,0,3.54,1.63,5.65,4.37,5.65,1.34,0,2.45-.56,3.5-1.76l.16-.18,1.46,1.29-.08.16c-1.29,2.67-3.69,4.08-6.95,4.08-5.82,0-8.42-4.33-8.42-8.62,0-5.15,3.75-8.75,9.12-8.75,3.44,0,6.13,2.11,6.38,5.02v.04s0,.04,0,.04Zm10.86,8.68c1.47,0,2.69-.54,3.81-1.71l.16-.16,1.45,1.33-.08.16c-1.37,2.64-3.76,3.98-7.11,3.98-5.12,0-8.42-3.4-8.42-8.65,0-5.73,4.37-8.72,8.69-8.72s7.04,2.83,7.04,7.21c0,.68-.06,1.24-.2,1.8l-.05.17h-9.43c.26,2.93,1.77,4.6,4.15,4.6"/>
  <path class="cls-1" d="m278.3,275.63h-.89c-.06,2.65-.06,5.28-.06,8.05v1.09c0,2.83,0,5.5.06,8.19h.86c3.66,0,5.85-3.25,5.85-8.68s-2.12-8.65-5.82-8.65"/>
  <path class="cls-1" d="m300,280.66c-1.75,0-2.56,2.07-2.56,6.51,0,5.8,1.46,6.48,2.56,6.48,1.73,0,2.53-2.06,2.53-6.48s-.83-6.51-2.53-6.51"/>
  <path class="cls-1" d="m280.65,225.95c-11.4,0-20.68,9.28-20.68,20.68v104.67c4.95-5.9,12.39-9.67,20.68-9.67h68.56v-115.69h-68.56Zm-2.42,69.38h-9.41v-2.22l2.47-.26c.06-2.6.06-5.25.06-8.05v-1.12c0-2.62,0-5.32-.06-7.95l-2.47-.26v-2.22h10c7.06,0,11.45,4.21,11.45,10.99s-4.61,11.09-12.04,11.09m21.77.49c-5.22,0-8.59-3.43-8.59-8.75,0-4.99,3.61-8.62,8.59-8.62s8.59,3.55,8.59,8.62-3.37,8.75-8.59,8.75m25.06-12.27c-.39,1.28-1.17,1.88-2.46,1.88-.95,0-2.57-.43-2.73-3.35l-.2-1.45c-.13,0-.26,0-.42,0-1.71,0-3.71,1.56-3.71,5.95,0,3.54,1.63,5.65,4.37,5.65,1.34,0,2.45-.56,3.5-1.76l.16-.18,1.46,1.29-.08.16c-1.28,2.67-3.69,4.08-6.95,4.08-5.82,0-8.42-4.33-8.42-8.62,0-5.15,3.75-8.75,9.12-8.75,3.44,0,6.13,2.11,6.38,5.02v.04s0,.04,0,.04Zm10.86,8.68c1.47,0,2.69-.54,3.81-1.71l.16-.16,1.45,1.33-.08.16c-1.37,2.64-3.76,3.98-7.11,3.98-5.12,0-8.42-3.4-8.42-8.65,0-5.73,4.37-8.72,8.69-8.72s7.04,2.83,7.04,7.21c0,.68-.06,1.24-.2,1.8l-.05.17h-9.43c.26,2.93,1.77,4.6,4.15,4.6"/>
  <path class="cls-1" d="m334.08,280.63c-1.36,0-2.18,1.71-2.32,4.83h2.55c1.37,0,1.77-.41,1.77-1.84,0-1.85-.77-2.99-2-2.99"/>
  <path class="cls-1" d="m257.42,16.54c83.5,0,164.28,11.42,240.93,32.77v205.05c0,45.63-6.3,87.79-18.73,125.3-11.58,34.94-28.84,66.93-51.29,95.08-38.85,48.71-93.7,87.4-167.67,118.29l-3.21,1.36-3.21-1.36c-73.97-30.89-128.82-69.58-167.67-118.29-22.46-28.15-39.71-60.14-51.29-95.08-12.43-37.51-18.73-79.66-18.73-125.3V49.31C93.19,27.96,173.92,16.54,257.42,16.54m0-16.54C174.15,0,91.61,11.23,12.11,33.37l-12.11,3.37v217.62c0,47.41,6.58,91.31,19.57,130.5,12.19,36.8,30.39,70.51,54.06,100.2,40.63,50.94,97.62,91.25,174.23,123.24l3.16,1.34,6.43,2.71,6.43-2.71,3.21-1.36c76.55-31.97,133.54-72.28,174.17-123.22,23.68-29.68,41.87-63.39,54.06-100.2,12.98-39.19,19.57-83.09,19.57-130.5V36.74l-12.11-3.37C423.28,11.23,340.73,0,257.42,0"/>
</svg>